 
 <!-- email SVG  https://svgsprit.es/-->
  
  <svg xmlns="http://www.w3.org/2000/svg" xmlns:xlink="http://www.w3.org/1999/xlink" versión="1.1">

 <!-- sobre SVG -->
  <symbol xmlns="http://www.w3.org/2000/svg" width="16" height="12" class="hidden" fill="none" viewBox="0 0 16 12" id="email">
    <path fill="#757575" d="M14.5 0h-13C.673 0 0 .673 0 1.5v9c0 .827.673 1.5 1.5 1.5h13c.827 0 1.5-.673 1.5-1.5v-9c0-.827-.673-1.5-1.5-1.5Zm0 1c.068 0
     .133.014.192.039L8 6.839l-6.692-5.8A.498.498 0 0 1 1.5 1h13Zm0 10h-13a.5.5 0 0 1-.5-.5V2.095l6.672 5.783a.5.5 0 0 0 .656 0L15 2.095V10.5a.5.5 0 0 1-.5.5Z">
     </path>
  </symbol>

 <!-- cellphon  SVG -->

  <symbol xmlns="http://www.w3.org/2000/svg" width="10" height="16" class="hidden" fill="none" viewBox="0 0 10 16" id="cellphon">
    <path fill="#757575" d="M8.5 0h-7C.673 0 0 .673 0 1.5v13c0 .827.673 1.5 1.5 1.5h7c.827 0 1.5-.673 1.5-1.5v-13C10 .673 9.327 0 8.5 0Zm-7 1h7a.5.5 0 0 1 .5.5V12H1V1.5a.5.5 0 0 1 .5-.5Zm7 14h-7a.5.5 0 0 1-.5-.5V13h8v1.5a.5.5 0 0 1-.5.5Z"></path>
  </symbol>

<!-- img1-antena-svg-sec-two  SVG -->

  <symbol xmlns="http://www.w3.org/2000/svg"  width="270" height="120" class="hidden" fill="none" viewBox="0 0 270 120" id="antena">
    <rect width="270" height="120" fill="#F5F4FA" rx="4"></rect>
    <path fill="#212121" d="m167.316 73.338-18.469-18.604 2.05-10.097a4.654 4.654 0 0 0 1.659.319h.014a4.723 4.723 0 1 0-4.394-3.14l-10.85 1.325-17.698-17.791a1.17 1.17 0 0 0-.824-.35c-.306.002-.6.123-.817.34l-3.308 3.29a1.166 1.166 0 0 0 0 1.65l1.78 1.805c-6.897 12.683-4.657 28.39 5.511 38.638.094.09.202.161.32.213a6.677 6.677 0 0 0-.114 1.197v13.534h-14a5.841 5.841 0 0 0-5.834 5.833v2.333c0 .645.523 1.167 1.167 1.167h53.667c.644 0 1.166-.522 1.166-1.167V91.5a5.84 5.84 0 0 0-5.833-5.833h-14v-5.998c2.193.46 4.428.694 6.669.7a32.486 32.486 0 0 0 15.4-3.901l1.789 1.8c.217.221.514.347.824.35a1.17 1.17 0 0 0 .817-.34l3.308-3.29a1.166 1.166 0 0 0 0-1.65Zm-16.391-34.703a2.332 2.332 0 1 1 1.644 3.988h-.007a2.334 2.334 0 0 1-1.633-3.988h-.004Zm-2.747 7.666-1.309 6.444-2.571-2.587 3.88-3.857Zm-1.325-1.973-4.2 4.176-3.249-3.267 7.449-.909ZM152.509 88a3.5 3.5 0 0 1 3.5 3.5v1.167h-51.333V91.5a3.5 3.5 0 0 1 3.5-3.5h44.333Zm-16.333-4.667v2.334h-11.667v-2.334h11.667ZM124.509 81v-8.867c0-2.83 2.617-5.133 5.833-5.133 3.217 0 5.834 2.303 5.834 5.133V81h-11.667Zm14-3.71v-5.157c0-4.117-3.663-7.466-8.167-7.466a8.313 8.313 0 0 0-7.177 3.907 30.339 30.339 0 0 1-4.984-34.753l40.691 40.925a30.232 30.232 0 0 1-20.363 2.544Zm24.695-1.496-1.644-1.653-42.768-43.025-1.651-1.655 1.651-1.645 17.358 17.456c.008 0 .013.015.021.021l28.688 28.856-1.655 1.645Z"></path>
    <path fill="#2196F3" d="M130.353 69.333h-.011a3.5 3.5 0 1 0-.01 7h.01a3.5 3.5 0 0 0 .011-7Zm.816 4.328a1.165 1.165 0 1 1-1.643-1.655c.217-.216.51-.338.816-.34a1.167 1.167 0 0 1 .817 1.995h.01Z"></path>
  </symbol>
<!-- img2-reloj-svg-sec-two  SVG -->
  <symbol xmlns="http://www.w3.org/2000/svg" width="270" height="120" class="hidden" fill="none" viewBox="0 0 270 120" id="reloj">
    <rect width="270" height="120" fill="#F5F4FA" rx="4"></rect>
    <g clip-path="url(#a)" filter="url(#b)">
      <path fill="#212121" d="M168.461 58.471c-.003-18.49-14.995-33.475-33.486-33.471-18.489.004-33.475 14.996-33.471 33.486A33.478 33.478 0 0 0 124.8 90.37c.132.042.27.063.408.063.264 0 .522-.071.749-.205.296-.175.516-.453.62-.78l8.455-26.797a4.183 4.183 0 0 0 4.162-4.206 4.184 4.184 0 0 0-4.206-4.164 4.131 4.131 0 0 0-1.794.42L122.025 43.53a1.395 1.395 0 0 0-1.972 1.973l11.163 11.176a4.104 4.104 0 0 0 1.174 5.051l-8.056 25.535c-15.92-5.865-24.072-23.525-18.208-39.445 5.865-15.92 23.524-24.072 39.445-18.207 15.92 5.864 24.072 23.524 18.207 39.444A30.72 30.72 0 0 1 147.455 86.5l-.871-4.1a1.394 1.394 0 0 0-2.293-.752l-8.393 7.494a1.395 1.395 0 0 0 .505 2.372l10.716 3.42a1.394 1.394 0 0 0 1.791-1.619l-.855-4.022a33.37 33.37 0 0 0 20.406-30.82Zm-33.478-1.394a1.395 1.395 0 1 1 0 2.79 1.395 1.395 0 0 1 0-2.79Zm4.594 32.515 4.778-4.262 1.319 6.213-6.097-1.951Z"></path>
      <path fill="#2196F3" d="M133.588 31.967v2.79a1.395 1.395 0 1 0 2.79 0v-2.79a1.395 1.395 0 0 0-2.79 0ZM108.479 57.077a1.395 1.395 0 1 0 0 2.79h2.79a1.395 1.395 0 0 0 0-2.79h-2.79ZM161.487 59.867a1.394 1.394 0 0 0 0-2.79h-2.79a1.395 1.395 0 1 0 0 2.79h2.79Z"></path>
    </g>
    <defs>
      <clipPath id="a">
        <path fill="#fff" d="M100 25h70v70h-70z"></path>
      </clipPath>
      <filter id="b" width="78" height="78" x="96" y="25" color-interpolation-filters="sRGB" filterUnits="userSpaceOnUse">
        <feFlood flood-opacity="0" result="BackgroundImageFix"></feFlood>
        <feColorMatrix in="SourceAlpha" result="hardAlpha" values="0 0 0 0 0 0 0 0 0 0 0 0 0 0 0 0 0 0 127 0"></feColorMatrix>
        <feOffset dy="4"></feOffset>
        <feGaussianBlur stdDeviation="2"></feGaussianBlur>
        <feComposite in2="hardAlpha" operator="out"></feComposite>
        <feColorMatrix values="0 0 0 0 0 0 0 0 0 0 0 0 0 0 0 0 0 0 0.25 0"></feColorMatrix>
        <feBlend in2="BackgroundImageFix" result="effect1_dropShadow_75273_444"></feBlend>
        <feBlend in="SourceGraphic" in2="effect1_dropShadow_75273_444" result="shape"></feBlend>
      </filter>
    </defs>
  </symbol>
  <!-- img3-tv-svg-sec-two  SVG -->
  <symbol xmlns="http://www.w3.org/2000/svg" width="270" height="120" class="hidden" fill="none" viewBox="0 0 270 120" id="tv">
    <rect width="270" height="120" fill="#F5F4FA" rx="4"></rect>
    <g clip-path="url(#a)">
      <path fill="#2196F3" d="M132.65 57.735h2.332V68.23h-2.332V57.735ZM141.978 62.4h2.332v5.83h-2.332V62.4ZM123.321 65.897h2.332v2.333h-2.332v-2.333ZM116.325 64.731h2.332v3.499h-2.332V64.73Z"></path>
      <path fill="#212121" d="M103.498 86.886h55.971a3.498 3.498 0 0 0 3.498-3.498v-4.664a3.498 3.498 0 0 0-3.498-3.498h-1.166v-29.08l6.623-6.273a3.518 3.518 0 1 0-1.633-1.67l-4.99 4.731v-2.69a3.499 3.499 0 0 0-3.498-3.498h-46.643a3.499 3.499 0 0 0-3.498 3.498v34.982h-1.166A3.498 3.498 0 0 0 100 78.724v4.664a3.498 3.498 0 0 0 3.498 3.498Zm62.967-51.306a1.166 1.166 0 1 1 0 2.332 1.166 1.166 0 0 1 0-2.332Zm-59.469 4.664c0-.644.522-1.166 1.166-1.166h46.643c.644 0 1.166.522 1.166 1.166v4.897l-2.332 2.216v-4.78c0-.645-.523-1.167-1.166-1.167h-41.978c-.644 0-1.167.522-1.167 1.166v29.152c0 .644.523 1.166 1.167 1.166h41.978c.643 0 1.166-.522 1.166-1.166V50.565l2.332-2.21v26.87h-48.975v-34.98Zm10.495 15.159a3.498 3.498 0 1 0 2.422 6.012l4.053 2.034a1.166 1.166 0 0 0 1.392-.268l8.616-9.694 8.47 6.347c.455.34 1.089.304 1.501-.086l7.361-6.973v17.787h-39.645v-26.82h39.645v5.82l-8.25 7.813-8.541-6.403a1.167 1.167 0 0 0-1.571.157l-8.734 9.828-3.265-1.633a3.34 3.34 0 0 0 .044-.423 3.498 3.498 0 0 0-3.498-3.498Zm1.166 3.498a1.166 1.166 0 1 1-2.332 0 1.166 1.166 0 0 1 2.332 0Zm6.996 18.657h11.661v1.166c0 .644-.522 1.166-1.166 1.166h-9.329a1.166 1.166 0 0 1-1.166-1.166v-1.166Zm-23.321 1.166c0-.644.522-1.166 1.166-1.166h19.823v1.166a3.498 3.498 0 0 0 3.498 3.498h9.329a3.498 3.498 0 0 0 3.498-3.498v-1.166h19.823c.644 0 1.166.522 1.166 1.166v4.664c0 .644-.522 1.166-1.166 1.166h-55.971a1.166 1.166 0 0 1-1.166-1.166v-4.664Z"></path>
    </g>
    <defs>
      <clipPath id="a">
        <path fill="#fff" d="M100 25h70v70h-70z"></path>
      </clipPath>
    </defs>
  </symbol>
  <!-- img4-astronauta -svg-sec-two  SVG -->
  <symbol xmlns="http://www.w3.org/2000/svg" width="270" height="120" class="hidden" fill="none" viewBox="0 0 270 120" id="astronauta">
    <rect width="270" height="120" fill="#F5F4FA" rx="4"></rect>
    <path fill="#2196F3" d="M169.943 34.896a1.166 1.166 0 0 0-.941-.793l-4.179-.608-1.87-3.787c-.392-.798-1.7-.798-2.092 0l-1.87 3.787-4.18.608a1.165 1.165 0 0 0-.647 1.99l3.025 2.948-.714 4.162c-.074.438.105.88.463 1.141.363.264.837.297 1.23.09l3.738-1.967 3.738 1.966a1.17 1.17 0 0 0 1.23-.089c.359-.26.539-.703.463-1.14l-.714-4.163 3.025-2.949a1.17 1.17 0 0 0 .295-1.196Zm-5.387 2.903a1.165 1.165 0 0 0-.335 1.033l.417 2.437-2.188-1.15a1.164 1.164 0 0 0-1.088 0l-2.188 1.15.417-2.437a1.164 1.164 0 0 0-.335-1.033l-1.772-1.727 2.448-.355c.38-.055.708-.294.879-.639l1.094-2.216 1.094 2.216c.171.344.498.584.879.639l2.447.355-1.769 1.727ZM157.167 69.892h-2.333v2.334h2.333v-2.334ZM157.167 74.56h-2.333v2.332h2.333V74.56ZM159.5 72.226h-2.333v2.333h2.333v-2.333ZM154.834 72.226H152.5v2.333h2.334v-2.333ZM149 82.726h-2.333v2.333H149v-2.333ZM149 87.393h-2.333v2.333H149v-2.333ZM151.334 85.06H149v2.333h2.334v-2.334ZM146.667 85.06h-2.334v2.333h2.334v-2.334ZM135 78.06h-2.333v2.333H135v-2.334ZM135 82.726h-2.333v2.333H135v-2.333ZM137.333 80.392H135v2.334h2.333v-2.334ZM132.667 80.392h-2.334v2.334h2.334v-2.334ZM112.833 38.392H110.5v2.333h2.333v-2.333ZM112.833 43.059H110.5v2.333h2.333V43.06ZM115.166 40.725h-2.333v2.334h2.333v-2.334ZM110.5 40.725h-2.334v2.334h2.334v-2.334Z"></path>
    <path fill="#212121" d="M154.064 55.974a3.881 3.881 0 0 0-2.6-1.541 3.887 3.887 0 0 0-2.931.77l-2.738 2.098-.001.002-4.151 3.1-2.971-1.184c5.297-2.376 8.999-7.674 8.999-13.825 0-8.363-6.831-15.167-15.227-15.167-8.397 0-15.228 6.804-15.228 15.167 0 3.031.907 5.85 2.45 8.222l-6.046-.053h-.01c-.019 0-.034.01-.051.01a1.141 1.141 0 0 0-.34.069c-.028.01-.057.016-.084.029-.014.005-.028.007-.042.014l-7.072 3.491c-.001 0-.003 0-.003.002l-4.141 1.991a.863.863 0 0 0-.138.077 3.895 3.895 0 0 0-1.309 5.022 3.884 3.884 0 0 0 2.31 1.944 3.893 3.893 0 0 0 3.016-.281l3.036-1.614 4.952-2.558 2.968-.017-11.904 11.846-.003.003-2.929 2.916a3.61 3.61 0 0 0-1.072 2.576 3.62 3.62 0 0 0 1.072 2.579 3.648 3.648 0 0 0 2.58 1.061c.936 0 1.869-.354 2.582-1.061l2.875-2.863 3.808-2.843 1.97 1.962-3.853 3.837-.004.002-2.928 2.917a3.607 3.607 0 0 0-1.073 2.576 3.648 3.648 0 0 0 3.653 3.64c.935 0 1.871-.354 2.582-1.061l2.93-2.917 4.686-4.667.003-.003 2.208-2.188-.008-.008c.014-.014.034-.019.048-.034l11.3-12.377 7.593 1.08c.055.008.11.012.165.012.141 0 .277-.034.409-.084.039-.014.072-.033.109-.051.042-.021.086-.033.126-.06l7.029-4.666c.026-.018.04-.046.064-.065.028-.022.063-.031.089-.056l2.781-2.605a3.892 3.892 0 0 0 .464-5.166Zm-49.404 7.898a1.558 1.558 0 0 1-1.221.113 1.562 1.562 0 0 1-.465-2.756l2.874-1.382.692 2.022.29.85-2.17 1.153Zm7.65-3.998-3.387 1.75-.558-1.633-.402-1.174 4.434-2.189-.087 3.246Zm33.03-14.482c0 2.009-.479 3.904-1.31 5.599l-9.147-4.155a4.067 4.067 0 0 0-1.724-3.035l3.202-10.633c5.202 1.655 8.979 6.507 8.979 12.224Zm-25.788 0c0-7.076 5.784-12.834 12.894-12.834.553 0 1.094.047 1.63.115l-3.133 10.398c-.042 0-.081-.012-.124-.012-2.259 0-4.097 1.831-4.097 4.083 0 2.252 1.838 4.083 4.097 4.083 1.518 0 2.831-.838 3.539-2.066l8.449 3.839c-2.351 3.163-6.113 5.227-10.361 5.227-7.11 0-12.894-5.757-12.894-12.833Zm13.029 1.75c0 .965-.791 1.75-1.762 1.75a1.759 1.759 0 0 1-1.763-1.75c0-.965.791-1.75 1.763-1.75.971 0 1.762.785 1.762 1.75Zm-27.189 32.865a1.33 1.33 0 0 1-1.869.002 1.297 1.297 0 0 1 0-1.847l2.104-2.097 1.862 1.854-2.097 2.088Zm7.03 8.167a1.33 1.33 0 0 1-1.87.001 1.297 1.297 0 0 1 0-1.846l2.106-2.098.881.876.982.978-2.099 2.09Zm7.616-7.588-.003.002-3.861 3.85-.881-.876-.982-.977 3.857-3.84v-.001l.004-.002c.087-.088.142-.193.196-.297.015-.03.044-.056.057-.087.036-.09.042-.187.056-.281.007-.054.03-.104.03-.16 0-.077-.028-.153-.044-.23-.014-.07-.014-.141-.041-.209a1.164 1.164 0 0 0-.199-.301c-.023-.026-.031-.058-.055-.083h-.002l-.002-.004-3.515-3.5c-.037-.038-.085-.053-.127-.085a1.165 1.165 0 0 0-.19-.126 1.115 1.115 0 0 0-.205-.07 1.126 1.126 0 0 0-.225-.044 1.149 1.149 0 0 0-.209.01c-.078.01-.151.02-.227.045-.074.023-.139.06-.206.098-.044.024-.093.033-.133.063l-3.88 2.896-1.97-1.963 5.248-5.22 9.538 9.382-2.029 2.01Zm14.916-15.349c-.033-.004-.065.008-.099.006a1.195 1.195 0 0 0-.444.062 1.07 1.07 0 0 0-.211.103c-.066.04-.125.081-.182.134-.028.024-.062.036-.088.064l-10.277 11.256-9.468-9.311 6.197-6.165a1.167 1.167 0 0 0-.83-1.993l-4.854.028.061-3.516 6.79.058a15.201 15.201 0 0 0 10.897 4.596c.957 0 1.89-.1 2.799-.268.087.07.174.14.283.185l5.272 2.1.333 1.659.39 1.937-6.569-.935Zm8.84.39-.684-3.408 3.164-2.363.828 1.1 1.242 1.649-4.55 3.022Zm8.211-6.193-1.832 1.717-2.037-2.704 1.818-1.394c.34-.261.768-.368 1.188-.313.422.06.796.28 1.05.622a1.562 1.562 0 0 1-.187 2.072Z"></path>
    <path fill="#212121" d="m129.755 65.565-4.688-4.667a1.165 1.165 0 0 0-1.646 0l-4.687 4.667c-.219.22-.343.517-.343.827 0 .31.122.608.343.827l4.687 4.667a1.164 1.164 0 0 0 1.646 0l4.688-4.667a1.168 1.168 0 0 0 0-1.654Zm-5.511 3.848-3.033-3.02 3.033-3.021 3.035 3.02-3.035 3.02ZM137.547 36.092l-.564 2.266c.155.039 3.801.988 3.801 4.7h2.334c0-4.412-3.644-6.486-5.571-6.966ZM143.118 45.392h-2.334v2.333h2.334v-2.333Z"></path>
  </symbol>


  <!-- start   section 4 img svg redes   -->
  <!-- instagram  SVG -->
  <symbol xmlns="http://www.w3.org/2000/svg" width="20" height="20" class="hidden"  viewBox="0 0 20 20" id="instagram">
    <g fill="#" clip-path="url(#a)">
      <path d="M19.98 5.88c-.046-1.063-.218-1.793-.464-2.426a4.88 4.88 0 0 0-1.157-1.774 4.922 4.922 0 0 0-1.77-1.153C15.952.281 15.226.11 14.163.063 13.093.012 12.753 0 10.037 0 7.322 0 6.982.012 5.915.059 4.853.105 4.122.277 3.49.523A4.88 4.88 0 0 0 1.715 1.68 4.924 4.924 0 0 0 .563 3.45C.316 4.087.145 4.813.098 5.876c-.051 1.07-.063 1.41-.063 4.126 0 2.715.012 3.055.059 4.122.047 1.063.219 1.793.465 2.426a4.932 4.932 0 0 0 1.156 1.774c.5.508 1.106.902 1.77 1.152.637.247 1.364.419 2.426.465 1.067.047 1.407.059 4.122.059 2.716 0 3.056-.012 4.122-.059 1.063-.046 1.793-.218 2.426-.464a5.116 5.116 0 0 0 2.927-2.927c.246-.637.418-1.364.465-2.426.047-1.067.058-1.407.058-4.122s-.004-3.055-.05-4.122Zm-1.8 8.166c-.044.977-.208 1.504-.344 1.856a3.318 3.318 0 0 1-1.9 1.898c-.35.137-.882.301-1.855.344-1.055.047-1.371.059-4.04.059-2.668 0-2.989-.012-4.04-.059-.977-.043-1.504-.207-1.856-.344a3.077 3.077 0 0 1-1.148-.746 3.11 3.11 0 0 1-.747-1.148c-.136-.352-.3-.883-.343-1.856-.047-1.055-.059-1.372-.059-4.04 0-2.669.012-2.99.059-4.04.043-.977.207-1.504.343-1.856A3.04 3.04 0 0 1 3 2.965a3.105 3.105 0 0 1 1.15-.746c.35-.137.882-.3 1.855-.344 1.055-.046 1.372-.058 4.04-.058 2.672 0 2.989.012 4.04.058.977.043 1.504.207 1.856.344.433.16.828.414 1.148.746.332.325.586.715.747 1.15.136.35.3.882.343 1.855.047 1.055.059 1.371.059 4.04 0 2.668-.012 2.98-.059 4.036Z"></path>
      <path d="M10.037 4.864A5.139 5.139 0 0 0 4.9 10.002a5.139 5.139 0 1 0 5.138-5.138Zm0 8.47a3.333 3.333 0 1 1 .001-6.666 3.333 3.333 0 0 1 0 6.667ZM16.578 4.661a1.2 1.2 0 1 1-2.4 0 1.2 1.2 0 0 1 2.4 0Z"></path>
    </g>
  </symbol>
   <!-- twiter   SVG -->
  <symbol xmlns="http://www.w3.org/2000/svg" width="20" height="20" class="hidden"  viewBox="0 0 20 20" id="twitter">
    <g  fill="" clip-path="url(#a)">
      <path d="M20 3.799a8.549 8.549 0 0 1-2.363.647 4.077 4.077 0 0 0 1.804-2.266 8.192 8.192 0 0 1-2.6.992A4.099 4.099 0 0 0 9.75 5.976c0 .325.027.638.095.935-3.409-.166-6.425-1.8-8.451-4.288A4.128 4.128 0 0 0 .83 4.694c0 1.42.732 2.679 1.821 3.407A4.05 4.05 0 0 1 .8 7.597v.045a4.119 4.119 0 0 0 3.285 4.03 4.09 4.09 0 0 1-1.075.134c-.262 0-.527-.015-.776-.07.531 1.624 2.038 2.818 3.831 2.856a8.238 8.238 0 0 1-5.084 1.75A7.67 7.67 0 0 1 0 16.284a11.543 11.543 0 0 0 6.29 1.84c7.545 0 11.67-6.25 11.67-11.668 0-.18-.006-.356-.015-.53A8.179 8.179 0 0 0 20 3.8Z">
      </path>
    </g>
  </symbol>

<!-- facebook  SVG -->

  <symbol xmlns="http://www.w3.org/2000/svg" width="20" height="20" class="hidden" viewBox="0 0 20 20" id="facebook">
    <g clip-path="url(#a)">
      <path fill="" d="M13.33 3.32h1.827V.14a23.576 23.576 0 0 0-2.66-.14C9.864 0 8.06 1.656 8.06 4.7v2.8H5.156v3.555H8.06V20h3.562v-8.944h2.787l.443-3.555h-3.231V5.05c0-1.027.277-1.73 1.709-1.73Z"></path>
    </g>
  </symbol>
<!-- linkeding  SVG -->
  <symbol xmlns="http://www.w3.org/2000/svg"  width="20" height="20" class="hidden"  viewBox="0 0 20 20" id="linkedin">
    <g fill="" clip-path="url(#a)">
      <path d="M19.995 20H20v-7.336c0-3.588-.772-6.352-4.967-6.352-2.017 0-3.37 1.106-3.923 2.156h-.058V6.647H7.074v13.352h4.142v-6.611c0-1.741.33-3.425 2.486-3.425 2.124 0 2.156 1.987 2.156 3.536V20h4.137ZM.33 6.647h4.147V20H.33V6.647ZM2.402 0A2.402 2.402 0 0 0 0 2.402c0 1.325 1.076 2.424 2.402 2.424 1.325 0 2.401-1.098 2.401-2.424A2.403 2.403 0 0 0 2.402 0Z"></path>
    </g>
  </symbol>
  <!-- end section 4 img svg redes   -->

  <!-- start  five section  regular customer  img svg -->
<!--section-five logo one -->
   <symbol xmlns="http://www.w3.org/2000/svg" width="170" height="81" class="hidden" viewBox="0 0 170 81" id="logo1">
    <!-- <rect width="169" height="80" x=".5" y=".5" stroke="#AFB1B8" rx="3.5"></rect> -->
    <g clip-path="url(#a)">
      <path fill="#" fill-rule="evenodd" d="m70 21.087 7.008 6.634L64 27.713v32.188h34V47.594l7 6.627V21.087H70Zm27.692 25.728-19.87-18.81h19.87v18.81Zm-6.169 8.378H69.38V33.544h1.565v20.182h20.578v1.466ZM74.61 64.186l-.818 1.685-.818-1.685h-.686l1.194 2.246v1.309h.62v-1.309l1.192-2.246h-.684Zm1.028 3.555.288-.828h1.377l.29.828h.645l-1.345-3.555h-.555l-1.342 3.555h.642Zm.976-2.8.515 1.474h-1.03l.515-1.475Zm3.257 1.389a.807.807 0 0 0-.134.451c0 .3.105.543.315.73.211.186.493.279.844.279.352 0 .655-.096.909-.286l.2.237h.688l-.522-.618c.205-.28.308-.639.308-1.077h-.516c0 .24-.05.457-.148.652l-.687-.81.242-.176a1.34 1.34 0 0 0 .369-.371.785.785 0 0 0 .112-.41.732.732 0 0 0-.249-.564.895.895 0 0 0-.635-.23c-.286 0-.514.082-.683.244-.17.162-.254.381-.254.66 0 .114.027.231.08.354.056.122.153.27.29.444-.263.189-.44.352-.529.49Zm1.604.786a.906.906 0 0 1-.561.2.585.585 0 0 1-.425-.154.533.533 0 0 1-.159-.4c0-.19.098-.36.293-.508l.076-.054.776.916Zm-.637-1.575c-.168-.207-.252-.378-.252-.515 0-.119.035-.217.103-.295a.348.348 0 0 1 .276-.118.37.37 0 0 1 .266.1c.07.066.105.145.105.237a.44.44 0 0 1-.151.344l-.076.062-.271.185Zm5.786 1.931c.244-.213.384-.51.42-.888h-.615c-.033.254-.11.435-.232.544-.122.109-.305.164-.547.164-.265 0-.467-.101-.606-.303-.136-.202-.205-.495-.205-.88v-.314c.004-.38.077-.666.22-.862.145-.197.352-.295.62-.295.231 0 .406.057.525.17.12.113.195.297.225.552h.615c-.04-.389-.178-.69-.418-.903-.239-.213-.555-.32-.947-.32-.291 0-.548.07-.771.208a1.346 1.346 0 0 0-.51.59 2.081 2.081 0 0 0-.179.887v.332c.005.327.066.614.183.862.118.247.284.438.498.573.217.134.467.2.75.2.405 0 .73-.105.974-.317Zm3.63-.498c.12-.264.181-.57.181-.918v-.197a2.148 2.148 0 0 0-.185-.911 1.356 1.356 0 0 0-.52-.6c-.224-.14-.48-.21-.77-.21-.29 0-.546.07-.771.212-.223.14-.396.342-.52.608a2.174 2.174 0 0 0-.183.918v.2c.002.34.063.64.185.9.124.261.298.462.523.604.226.14.483.21.771.21.292 0 .549-.07.772-.21.224-.142.397-.344.517-.606Zm-.661-2.01c.15.21.224.513.224.907v.185c0 .4-.074.705-.222.913-.146.209-.356.313-.63.313a.738.738 0 0 1-.634-.32c-.152-.213-.227-.515-.227-.906v-.205c.003-.382.08-.678.229-.886a.73.73 0 0 1 .628-.315c.273 0 .484.105.632.315Z" clip-rule="evenodd"></path>
    </g>
  </symbol>
<!--section-five logo two -->
  <symbol xmlns="http://www.w3.org/2000/svg" width="170" height="81" class="hidden" viewBox="0 0 170 81" id="logo2">
    <g fill="" clip-path="url(#a)">
      <path fill-rule="evenodd" d="M82.114 20.021h-.137a17.43 17.43 0 0 0-.63-.022h-.455c-.397 0-.802.01-1.204.03a.628.628 0 0 0-.091 0 28.276 28.276 0 0 0-10.516 2.683l-.433.208v22.142l1.012-.344c.888-.305 1.834-.58 2.813-.834a34.334 34.334 0 0 1 8.095-1.075v2.909c-.362.002-.713.012-1.065.03h-.084a32.36 32.36 0 0 0-6.228.956 31.626 31.626 0 0 0-7.42 2.892V21.199a29.725 29.725 0 0 1 7.785-3.166 29.793 29.793 0 0 1 7.336-.946h.427c.511.013 1.01.036 1.478.071 1.233.087 2.456.282 3.655.582v2.864a22.626 22.626 0 0 0-3.614-.54c-.247-.021-.494-.043-.724-.043Zm5.039 2.927c.635.049 1.292.072 1.958.072a31.473 31.473 0 0 0 7.713-.99 31.767 31.767 0 0 0 7.417-2.893v27.89a29.809 29.809 0 0 1-7.786 3.166 29.938 29.938 0 0 1-7.337.944 22.4 22.4 0 0 1-5.565-.657V22.41c.43.098.873.19 1.323.266.739.125 1.518.216 2.277.272Zm14.194.216-1.012.341c-.93.313-1.87.593-2.813.842a34.268 34.268 0 0 1-8.406 1.078c-.66 0-1.267-.018-1.854-.056l-.807-.053V48.093l.693.06c.642.057 1.305.085 1.973.085a26.884 26.884 0 0 0 6.62-.857 27.746 27.746 0 0 0 5.173-1.86l.433-.208V23.164Z" clip-rule="evenodd"></path>
      <path d="M67.737 59.3a1.492 1.492 0 0 0-1.126-.456 1.676 1.676 0 0 0-.65.122 1.464 1.464 0 0 0-.832.842c-.08.2-.119.413-.116.628v3.794a1.79 1.79 0 0 0 .149.778c.09.195.219.368.38.509.151.127.329.22.52.27.185.051.376.078.567.078.211.002.42-.043.612-.132a1.601 1.601 0 0 0 .96-1.465v-.424h-.993v.338a.88.88 0 0 1-.058.338.607.607 0 0 1-.144.214.697.697 0 0 1-.415.145.504.504 0 0 1-.465-.204.898.898 0 0 1-.132-.508v-3.538c-.006-.196.036-.39.122-.567a.507.507 0 0 1 .485-.229.527.527 0 0 1 .443.214.806.806 0 0 1 .164.509v.328h.982v-.387a1.79 1.79 0 0 0-.121-.664 1.563 1.563 0 0 0-.332-.534ZM73.629 59.256a1.765 1.765 0 0 0-1.128-.417c-.202.001-.403.037-.592.107a1.56 1.56 0 0 0-.908.842c-.1.231-.15.482-.145.735v3.638c-.006.256.043.51.145.745.09.196.22.37.384.51.152.14.33.249.524.32a1.711 1.711 0 0 0 1.72-.32c.158-.143.285-.316.374-.51.102-.234.151-.489.144-.745v-3.639a1.77 1.77 0 0 0-.144-.734 1.641 1.641 0 0 0-.374-.532Zm-.463 4.905a.656.656 0 0 1-.197.527.726.726 0 0 1-.934 0 .65.65 0 0 1-.197-.527v-3.639a.653.653 0 0 1 .197-.526.726.726 0 0 1 .934 0 .653.653 0 0 1 .197.526v3.64ZM81.367 65.786v-6.888h-.953l-1.253 3.646h-.017l-1.263-3.646h-.943v6.888h.984v-4.19h.017l.964 2.962h.491l.971-2.962h.018v4.19h.984ZM86.958 59.38c-.151-.17-.343-.299-.556-.376a2.184 2.184 0 0 0-.714-.106h-1.462v6.888h.981v-2.69h.506c.307.014.611-.05.886-.188a1.43 1.43 0 0 0 .539-.527c.113-.183.19-.387.225-.6.038-.259.056-.52.053-.783.01-.33-.023-.661-.096-.984a1.467 1.467 0 0 0-.362-.633Zm-.506 2.101a.866.866 0 0 1-.091.359.553.553 0 0 1-.253.241 1.007 1.007 0 0 1-.463.087h-.448v-2.342h.506a.941.941 0 0 1 .443.086.555.555 0 0 1 .23.255c.054.12.083.251.086.383v.458c0 .16.01.326 0 .473h-.01ZM91.608 58.898h-.805l-1.518 6.888h.982l.288-1.48h1.338l.289 1.48h.981l-1.555-6.888Zm-.906 4.47.483-2.497h.018l.48 2.497h-.981ZM97.95 63.048h-.018l-1.482-4.15h-.944v6.888h.981v-4.142h.02l1.5 4.142h.924v-6.888h-.981v4.15ZM103.948 58.898l-.79 2.738h-.02l-.789-2.738h-1.04l1.348 3.977v2.911h.982v-2.911l1.348-3.977h-1.039Z"></path>
    </g>
  </symbol>
<!--section five logo trhee  -->
  <symbol xmlns="http://www.w3.org/2000/svg" width="170" height="81" class="hidden" viewBox="0 0 170 81" id="logo3">
    <path fill="" d="M68.406 63.188a.133.133 0 0 1 .085.034l.218.208c-.17.169-.379.304-.614.396-.275.1-.571.149-.87.142-.28.005-.558-.04-.817-.133a1.794 1.794 0 0 1-.616-.374 1.673 1.673 0 0 1-.398-.578 1.925 1.925 0 0 1-.14-.742 1.725 1.725 0 0 1 .573-1.322c.186-.163.409-.291.654-.376.269-.09.555-.136.843-.133a2.27 2.27 0 0 1 .782.12c.216.082.415.195.587.335l-.183.222a.175.175 0 0 1-.047.04.124.124 0 0 1-.073.017.177.177 0 0 1-.08-.023l-.097-.06-.137-.075a1.555 1.555 0 0 0-.43-.133 1.902 1.902 0 0 0-.325-.024 1.761 1.761 0 0 0-.605.1c-.18.063-.341.158-.474.28-.136.128-.241.28-.309.445a1.498 1.498 0 0 0-.111.587c-.004.203.034.406.111.597a1.3 1.3 0 0 0 .303.443c.125.12.28.215.453.275.178.064.369.096.561.095.112.001.223-.005.333-.019a1.316 1.316 0 0 0 .72-.306.17.17 0 0 1 .103-.038ZM74.704 62.14c.004.252-.046.502-.147.738a1.594 1.594 0 0 1-.41.572 1.89 1.89 0 0 1-.645.375 2.654 2.654 0 0 1-1.658 0 1.912 1.912 0 0 1-.64-.376 1.677 1.677 0 0 1-.415-.578 1.922 1.922 0 0 1 0-1.476c.093-.216.234-.413.415-.58.182-.159.4-.282.64-.363a2.61 2.61 0 0 1 1.658 0c.242.085.461.214.644.376.179.165.319.36.411.571.101.238.151.489.147.742Zm-.572 0a1.565 1.565 0 0 0-.104-.591 1.219 1.219 0 0 0-.752-.723 1.918 1.918 0 0 0-1.205 0 1.298 1.298 0 0 0-.461.28 1.191 1.191 0 0 0-.294.443 1.738 1.738 0 0 0 0 1.184 1.209 1.209 0 0 0 .755.72c.388.127.816.127 1.205 0 .175-.061.333-.156.46-.277.131-.129.23-.28.292-.443.073-.19.108-.391.104-.592ZM79.001 62.762l.058.132c.021-.047.04-.09.062-.132.021-.045.045-.088.071-.13l1.393-2.201c.028-.038.052-.062.08-.069a.376.376 0 0 1 .114-.012h.412v3.58h-.488V61.186a.974.974 0 0 1 0-.124L79.3 63.295a.203.203 0 0 1-.082.081.245.245 0 0 1-.12.03h-.079a.242.242 0 0 1-.12-.03.2.2 0 0 1-.081-.081l-1.443-2.246V63.922h-.471V60.35h.411a.377.377 0 0 1 .115.012c.034.015.06.039.076.069l1.423 2.203c.028.04.052.083.071.128ZM84.244 62.584v1.34H83.7V60.35h1.216c.23-.004.459.023.679.078.176.044.34.12.48.223a.922.922 0 0 1 .272.35c.065.146.096.302.093.458a.992.992 0 0 1-.395.815c-.14.107-.304.188-.483.237a2.307 2.307 0 0 1-.657.082l-.66-.01Zm0-.384h.66c.144.002.286-.017.423-.054a.922.922 0 0 0 .305-.154.686.686 0 0 0 .25-.538.604.604 0 0 0-.054-.291.689.689 0 0 0-.19-.244 1.173 1.173 0 0 0-.734-.192h-.66V62.2ZM91.573 63.93h-.43a.205.205 0 0 1-.12-.034.224.224 0 0 1-.072-.083l-.37-.864h-1.862l-.385.864a.204.204 0 0 1-.19.116h-.432l1.636-3.58h.567l1.658 3.58Zm-2.7-1.33h1.539l-.65-1.456c-.049-.11-.09-.222-.122-.337l-.063.187c-.019.057-.04.11-.06.152l-.643 1.454ZM93.929 60.367c.032.015.06.037.082.064l2.385 2.698V60.35h.488v3.58h-.272a.264.264 0 0 1-.112-.022.297.297 0 0 1-.087-.066l-2.383-2.696a.974.974 0 0 1 0 .123V63.93h-.488v-3.58h.289a.26.26 0 0 1 .098.018ZM100.903 62.506v1.421h-.545v-1.421L98.85 60.35h.488a.196.196 0 0 1 .117.03c.03.024.055.051.074.081l.943 1.391c.038.06.071.114.098.166.028.052.05.102.069.151l.071-.153a1.21 1.21 0 0 1 .092-.164l.93-1.4a.348.348 0 0 1 .071-.076.182.182 0 0 1 .117-.035h.494l-1.511 2.165ZM78.731 54.343c.238.026.478.047.72.066 3.68-1.43 6.791-3.77 8.948-6.728 2.156-2.958 3.261-6.403 3.177-9.904l-4.054-3.522c.824 3.727.438 7.58-1.114 11.128s-4.21 6.65-7.677 8.96Z"></path>
    <path fill="" d="m77.284 54.18.109.018c3.704-2.302 6.528-5.516 8.106-9.227 1.579-3.711 1.84-7.749.75-11.59l-5.775-5.017c2.335 4.124 3.275 8.74 2.71 13.31-.564 4.57-2.61 8.906-5.9 12.505ZM96.868 41.914c-.981 3.846-3.364 7.315-6.794 9.892a21.625 21.625 0 0 1-3.229 2.013c2.794-.713 5.362-1.974 7.505-3.686 2.144-1.712 3.807-3.829 4.86-6.187l-2.342-2.032Z"></path>
    <path fill="" d="m95.95 41.347-3.335-2.897c-.064 3.303-1.145 6.531-3.13 9.348-1.986 2.818-4.804 5.122-8.16 6.673h.016c.748 0 1.495-.04 2.238-.116 3.138-1.113 5.909-2.883 8.068-5.153 2.158-2.27 3.636-4.968 4.302-7.855ZM77.766 26.248l-3.978-3.461c-3.556 1.194-6.614 3.293-8.775 6.022-2.16 2.73-3.322 5.962-3.333 9.274.013 3.66 1.431 7.212 4.03 10.093 2.597 2.881 6.227 4.927 10.314 5.814 3.648-3.862 5.785-8.634 6.098-13.623.313-4.99-1.213-9.935-4.356-14.12ZM105.14 40.814c-.014-4.342-2.006-8.503-5.54-11.574-3.534-3.07-8.324-4.801-13.322-4.813-2.31-.003-4.6.368-6.753 1.092l24.355 21.16a14.342 14.342 0 0 0 1.26-5.865Z"></path>
  </symbol>
<!--section-five logo four  -->
   <symbol xmlns="http://www.w3.org/2000/svg" width="170" height="81" class="hidden" viewBox="0 0 170 81" id="logo4">
    <path fill="000" d="M56.1 35.2c-2.4 0-4.3 1.7-4.3 3.8 0 2.2 2 4 4.3 4 2.4 0 4.4-1.8 4.4-4 0-2-2-3.8-4.4-3.8ZM88.2 34c0-3-1.3-5.8-3.7-8-2.3-2-5.5-3.2-8.9-3.2-3.3 0-6.5 1.2-8.9 3.3-2.3 2-3.6 4.9-3.6 7.9v16.3S88 47.8 88 34ZM43 55.6c0 2.1 1 4 2.6 5.5a9.4 9.4 0 0 0 6.1 2.3c2.4 0 4.6-.8 6.2-2.3a7.4 7.4 0 0 0 2.6-5.5V44.3S43 46 43 55.6Zm8.7 2c-.4 0-.9 0-1.2-.3-.4-.2-.7-.5-.9-.9-.1-.4-.2-.8-.1-1.2 0-.4.3-.7.6-1 .3-.3.8-.5 1.2-.6.4 0 .9 0 1.3.2.4.1.8.4 1 .7a1.9 1.9 0 0 1-.2 2.6l-.8.4-.9.2ZM67.7 54v4.3H67V54h.8Zm1.7 1.9v.6h-2V56h2Zm.2-1.9v.7h-2.1V54h2.1Zm4 2v1.1l-.5.7-.5.4-.8.2-.7-.2c-.2 0-.4-.2-.6-.4a2 2 0 0 1-.4-.7v-2l.4-.6.6-.4.7-.1.8.1.5.4.4.7.1.9Zm-.8.3V56l-.1-.6-.2-.5a.8.8 0 0 0-.7-.3h-.4l-.3.3-.1.5-.1.6v.8l.2.4.3.3h.8l.3-.3.2-.4v-.6Zm3.7.9V57l-.2-.2-.2-.2-.4-.1-.6-.2-.4-.3-.4-.4a1 1 0 0 1 0-.4v-.5l.4-.4.5-.2a2.3 2.3 0 0 1 1.4 0l.6.5.2.7h-.9V55l-.3-.3h-.4a1 1 0 0 0-.4 0l-.2.2v.5l.1.1.3.2h.4l.6.3.4.3a1.1 1.1 0 0 1 .4.9l-.1.5-.3.3-.5.3a2.4 2.4 0 0 1-1.8-.3l-.4-.4-.2-.6h.9v.3l.2.2.3.1h.7a.5.5 0 0 0 .3-.4Zm3.4-3.2v4.3H79V54h.9Zm1.3 0v.7h-3.5V54h3.5Zm3.4 3.6v.7h-2.3v-.7h2.3Zm-2-3.6v4.3h-.9V54h.9Zm1.7 1.8v.6h-2v-.6h2Zm.3-1.8v.7h-2.3V54h2.3Zm.5 0h1.6c.3 0 .6 0 .8.2.2 0 .4.2.6.4l.1.7v.6l-.4.4-.5.3-.3.1h-1.4V56h1.5l.2-.3V55l-.2-.2H86v3.5h-1V54Zm2.4 4.3-1-2h1l.9 2h-1Zm4.6-1.5H91V56h1.5c0-.2.2-.2.2-.3V55l-.2-.3a.8.8 0 0 0-.4 0h-.8v3.5h-.9V54h1.7c.3 0 .6 0 .8.2a1.3 1.3 0 0 1 .8 1.2c0 .3 0 .5-.2.7-.1.2-.3.4-.6.5a2 2 0 0 1-.8.2Zm5 .8v.7H95v-.7H97Zm-2-3.6v4.3h-.8V54h.9Zm1.7 1.8v.6h-2v-.6h2Zm.3-1.8v.7H95V54H97Zm2.5 0v4.3h-.9V54h1Zm1.3 0v.7h-3.4V54h3.4Zm3.4 3.6v.7H102v-.7h2.3Zm-2-3.6v4.3h-.9V54h1Zm1.7 1.8v.6h-2v-.6h2Zm.3-1.8v.7H102V54h2.3Zm.5 0h1.6c.3 0 .6 0 .8.2.3 0 .5.2.6.4l.2.7-.1.6-.4.4-.5.3-.2.1h-1.4V56h1.4l.2-.3.1-.3V55l-.3-.2h-1.1v3.5h-.9V54Zm2.4 4.3-1-2h1l1 2h-1Zm3.7-1.1V57l-.2-.2-.2-.2-.5-.1-.5-.2-.5-.3-.3-.4a1 1 0 0 1 0-.4v-.5l.3-.4.5-.2a2.2 2.2 0 0 1 1.5 0l.6.5.1.7h-.8l-.1-.3-.2-.3h-.4a1 1 0 0 0-.4 0l-.2.2-.1.3v.2l.2.1.3.2h.3l.6.3.5.3a1.1 1.1 0 0 1 .4.9c0 .2 0 .3-.2.5l-.3.3-.5.3a2.4 2.4 0 0 1-1.8-.3l-.4-.4-.1-.6h.9v.3l.2.2.3.1h.7a.5.5 0 0 0 .3-.4Z">
    </path>
  </symbol>
<!--section five logo five  -->
  <symbol xmlns="http://www.w3.org/2000/svg" width="170" height="81" class="hidden" viewBox="0 0 170 81" id="logo5">
    <g fill="" clip-path="url(#a)">
      <path d="M58.757 58.822c.244.276.373.622.367.977a1.43 1.43 0 0 1-.131.676 1.557 1.557 0 0 1-.438.558 2.627 2.627 0 0 1-1.651.45H54v-6.19h2.844a2.593 2.593 0 0 1 1.576.41c.184.141.33.32.425.52.096.202.139.42.127.64.016.34-.1.676-.33.946-.221.246-.526.416-.866.484.385.064.733.252.98.53Zm-3.406-.934h1.216c.276.018.55-.055.773-.206a.738.738 0 0 0 .207-.275.68.68 0 0 0 .054-.33.701.701 0 0 0-.055-.329.76.76 0 0 0-.203-.276 1.255 1.255 0 0 0-.796-.209H55.35v1.625Zm2.108 2.374a.777.777 0 0 0 .224-.284.711.711 0 0 0 .063-.345.722.722 0 0 0-.066-.35.788.788 0 0 0-.228-.285 1.338 1.338 0 0 0-.826-.224h-1.275v1.703h1.292c.29.015.578-.06.816-.215ZM64.57 61.484l-1.581-2.42h-.595v2.42h-1.361v-6.192h2.577a2.699 2.699 0 0 1 1.793.527c.36.336.578.778.613 1.248a1.86 1.86 0 0 1-.421 1.314 2.147 2.147 0 0 1-1.229.629l1.685 2.474h-1.48Zm-2.176-3.264h1.113c.773 0 1.16-.312 1.16-.937a.852.852 0 0 0-.063-.376.917.917 0 0 0-.221-.32 1.282 1.282 0 0 0-.876-.251h-1.126l.013 1.884ZM72.01 60.238h-2.712l-.479 1.246h-1.427l2.49-6.122h1.543l2.481 6.122H72.48l-.469-1.246Zm-.363-.938-.991-2.613-.991 2.613h1.982ZM81.322 61.484h-1.35l-3.03-4.21v4.21h-1.348v-6.192h1.348l3.03 4.235v-4.235h1.35v6.192ZM89.033 60.002c-.28.467-.705.847-1.223 1.092a4.287 4.287 0 0 1-1.9.39h-2.404v-6.192h2.405a4.376 4.376 0 0 1 1.9.381c.516.24.943.616 1.222 1.08.278.504.423 1.06.423 1.625 0 .564-.145 1.12-.423 1.624Zm-1.546-.148a2.16 2.16 0 0 0 .597-1.478c0-.542-.212-1.066-.597-1.477a2.488 2.488 0 0 0-1.692-.527h-.938v4.008h.938a2.489 2.489 0 0 0 1.692-.526ZM72.856 20.854s17.439 6.028 17.069 14.75V50.36s-17.426-6.031-17.063-14.754l-.006-14.751ZM105.46 46.905c3.294-2.075 7.103-3.36 11.08-3.739v-4.618c-4.582 1.617-8.469 4.549-11.08 8.357Z"></path>
      <path d="M103.482 48.296c2.695-4.97 7.368-8.805 13.058-10.716V24.272S91.705 32.858 92.23 45.28v21.006s1.107-.384 2.848-1.104c0-.672 0-1.349.08-2.03.513-5.767 3.507-11.11 8.324-14.857Z"></path>
      <path d="M101.12 56.1c.13-1.457.421-2.898.869-4.301-3 3.235-4.816 7.25-5.193 11.479-.037.399-.057.798-.067 1.21a74.704 74.704 0 0 0 4.777-2.305c-.44-2.001-.57-4.049-.386-6.083ZM102.107 56.176a19.041 19.041 0 0 0 .308 5.508c6.785-3.718 14.409-9.462 14.115-16.403v-.605c-4.848.497-9.383 2.437-12.91 5.523a19.293 19.293 0 0 0-1.513 5.977Z"></path>
    </g>
  </symbol>
<!--section five logo six  -->
  <symbol xmlns="http://www.w3.org/2000/svg" width="170" height="81" class="hidden" viewBox="0 0 170 81" id="logo6">
    <path fill="" d="M85.425 41.495a2.947 2.947 0 0 1-.605-1.988v-2.884c0-.883.2-1.555.602-2.015.4-.46 1.089-.688 2.065-.686.917 0 1.569.196 1.954.587.42.499.624 1.109.577 1.724v.678h-1.64v-.687c.005-.224-.01-.449-.048-.671a.65.65 0 0 0-.235-.399.948.948 0 0 0-.594-.156 1.005 1.005 0 0 0-.625.165.768.768 0 0 0-.272.44 3.33 3.33 0 0 0-.065.712v3.5c-.026.337.047.675.21.982a.77.77 0 0 0 .328.238c.133.052.28.071.424.055a.893.893 0 0 0 .58-.158.704.704 0 0 0 .245-.425 3.86 3.86 0 0 0 .051-.701v-.71h1.641v.648a2.64 2.64 0 0 1-.567 1.813c-.377.428-1.02.642-1.964.642s-1.658-.229-2.062-.704ZM92.257 41.525c-.415-.45-.622-1.103-.622-1.968v-3.033c0-.857.207-1.505.622-1.945.414-.44 1.107-.659 2.079-.657.965 0 1.654.22 2.069.657.414.44.625 1.088.625 1.945v3.032c0 .857-.21 1.514-.632 1.966-.421.451-1.107.677-2.062.677-.955 0-1.661-.229-2.08-.674Zm2.843-.728c.149-.281.216-.589.197-.897v-3.714a1.65 1.65 0 0 0-.193-.88.775.775 0 0 0-.335-.241.906.906 0 0 0-.433-.052.917.917 0 0 0-.434.052.786.786 0 0 0-.337.242c-.15.274-.217.576-.197.88v3.73c-.02.309.047.617.197.898.095.094.213.17.346.222a1.156 1.156 0 0 0 .843 0 1.02 1.02 0 0 0 .346-.222v-.018ZM99.004 34.01h1.766l1.328 5.596 1.359-5.595h1.719l.174 8.076h-1.271l-.136-5.613-1.311 5.613h-1.019l-1.359-5.634-.126 5.634h-1.284l.16-8.076ZM107.33 34.01h2.752c1.585 0 2.378.765 2.378 2.294 0 1.464-.835 2.196-2.504 2.194h-.937v3.59h-1.699l.01-8.077Zm2.351 3.452c.168.019.338.005.5-.039.161-.044.309-.117.434-.216.195-.273.281-.593.245-.912a2.526 2.526 0 0 0-.082-.733.581.581 0 0 0-.125-.222.698.698 0 0 0-.214-.162 1.76 1.76 0 0 0-.758-.13h-.659v2.414h.659ZM114.909 34.01h1.825l1.872 8.077h-1.584l-.37-1.862h-1.627l-.381 1.862h-1.606l1.871-8.076Zm1.56 5.28-.636-3.39-.635 3.39h1.271ZM120.117 34.01h1.189l2.276 4.608V34.01h1.41v8.076h-1.131l-2.29-4.81v4.81h-1.457l.003-8.076ZM128.294 39.008l-1.892-4.986h1.594l1.155 3.203 1.083-3.203h1.56l-1.869 4.986v3.08h-1.631v-3.08ZM88.048 45.618v.423h-1.386v3.282h-.581V46.04h-1.393v-.422h3.36ZM92.393 49.323h-.449a.2.2 0 0 1-.126-.035.194.194 0 0 1-.074-.085l-.401-.88H89.42l-.4.88a.242.242 0 0 1-.062.1.207.207 0 0 1-.126.035h-.448l1.698-3.704h.592l1.719 3.69Zm-2.813-1.375h1.603l-.68-1.508a2.699 2.699 0 0 1-.125-.349c-.024.07-.044.138-.064.197l-.062.155-.672 1.505ZM95.321 48.96c.106.004.213.004.32 0 .091-.009.182-.024.271-.045.083-.017.165-.04.245-.067.075-.027.15-.059.227-.091v-.833h-.679a.14.14 0 0 1-.092-.03.086.086 0 0 1-.026-.03.074.074 0 0 1-.008-.037v-.285h1.318v1.42a2.566 2.566 0 0 1-.716.302c-.14.036-.281.061-.425.077a5.16 5.16 0 0 1-.496.023 2.594 2.594 0 0 1-.856-.138 2.09 2.09 0 0 1-.68-.387 1.79 1.79 0 0 1-.438-.587 1.851 1.851 0 0 1-.156-.768 1.92 1.92 0 0 1 .153-.775c.097-.219.247-.419.438-.586.194-.167.425-.297.68-.384.29-.095.6-.142.91-.138.158 0 .316.01.472.032.138.02.274.05.404.094.12.038.233.088.34.147.104.057.203.122.296.193l-.163.229a.143.143 0 0 1-.055.05.172.172 0 0 1-.078.02.222.222 0 0 1-.105-.029 2.113 2.113 0 0 1-.167-.088 1.504 1.504 0 0 0-.227-.1 2.127 2.127 0 0 0-.313-.082 2.614 2.614 0 0 0-.431-.032 2.009 2.009 0 0 0-.656.103c-.189.065-.36.165-.5.293a1.29 1.29 0 0 0-.315.46 1.732 1.732 0 0 0 0 1.235c.074.175.19.333.34.467.139.127.308.227.495.293.217.064.445.089.673.073ZM100.736 48.9h1.855v.423h-2.422v-3.705h.581l-.014 3.282ZM104.521 49.323h-.581v-3.705h.581v3.705ZM106.681 45.636a.28.28 0 0 1 .089.068l2.483 2.792a.97.97 0 0 1 0-.132V45.604h.506v3.72h-.292a.277.277 0 0 1-.126-.021.322.322 0 0 1-.091-.07l-2.48-2.79v2.88h-.486v-3.705h.302c.033 0 .065.007.095.018ZM114.036 45.618v.408h-2.058v1.223h1.668v.393h-1.668v1.264h2.058v.408h-2.656v-3.696h2.656ZM53.162 22.742l25.795 6.324v22.158l-25.795-6.32V22.741Zm-1.655-1.888V45.98l29.1 7.135V27.992l-29.1-7.138Z"></path>
    <path fill="" d="M67.104 64.78 38 57.637V32.514l29.104 7.139v25.126Z"></path>
    <path fill="" d="m51.99 22.458 25.458 6.244-10.826 9.35-25.463-6.247 10.83-9.347Zm-.483-1.604L38 32.514l29.104 7.14 13.504-11.662-29.1-7.138ZM68.741 63.366l11.867-10.248-11.867-2.912v13.16Z"></path>
  </symbol>
  <!-- footer icons  -->

</svg>


